<?xml version="1.0" encoding="utf-8"?>
<svg version="1.0" width="416px" height="96px" xmlns="http://www.w3.org/2000/svg" xmlns:bx="https://boxy-svg.com">
  <defs>
    <style bx:fonts="Amiri">@import url(https://fonts.googleapis.com/css2?family=Amiri%3Aital%2Cwght%400%2C400%3B0%2C700%3B1%2C400%3B1%2C700&amp;display=swap);</style>
    <bx:grid x="10.691" y="100.107" width="51.892" height="51.892"/>
  </defs>
  <g transform="matrix(1.508143, 0, 0, -1.512191, -10645.964844, 1710.831299)" fill="#000000" stroke="none" style="">
    <path d="M296 3314 c-68 -21 -154 -108 -187 -189 l-24 -60 -3 -1280 c-2 -921 0 -1297 8 -1340 23 -118 69 -191 145 -226 86 -40 193 -16 357 79 l98 57 0 178 0 178 -22 -12 c-12 -7 -47 -28 -78 -48 -73 -46 -145 -81 -170 -81 -11 0 -29 9 -40 20 -20 20 -20 33 -20 1380 0 748 -3 1360 -7 1359 -5 0 -30 -7 -57 -15z" style="fill-rule: evenodd; paint-order: stroke markers; fill: rgb(254, 0, 0);"/>
    <path d="M560 3166 l0 -163 248 -144 c1179 -683 1710 -994 1729 -1011 65 -61 48 -117 -55 -176 -37 -22 -354 -207 -705 -411 -351 -204 -642 -371 -646 -371 -18 0 -21 106 -21 813 l0 737 -140 0 -140 0 0 -1185 0 -1185 140 0 140 0 0 233 0 232 835 484 c738 427 841 490 885 538 65 71 93 146 88 233 -9 155 -82 225 -459 445 -151 87 -623 364 -1049 614 -690 404 -825 481 -845 481 -3 0 -5 -74 -5 -164z" style="fill-rule: evenodd; paint-order: stroke markers; fill: rgb(254, 0, 0);"/>
  </g>
  <text style="fill: rgb(254, 0, 0); font-family: Amiri; font-size: 23.5731px; font-style: italic; font-weight: 700; text-transform: capitalize; white-space: pre;" transform="matrix(77.894173, 0, 0, 182.733643, -7617.443848, -5948.290039)" x="20.41" y="35.475">Prathmesh Laminate's</text>
  <text style="fill: rgb(254, 0, 0); font-family: Arial, sans-serif; font-size: 13.6px; text-transform: capitalize; white-space: pre;" transform="matrix(2.766974, 0, 0, -5.549253, -1805.35437, 1038.079956)" x="363.008" y="73.379"> </text>
</svg>