<?xml version="1.0" encoding="utf-8"?>
<svg version="1.0" width="299.000000pt" height="346.000000pt" viewBox="0 0 299.000000 346.000000" preserveAspectRatio="xMidYMid meet" xmlns="http://www.w3.org/2000/svg">
  <g transform="translate(0.000000,346.000000) scale(0.100000,-0.100000)" fill="#000000" stroke="none">
    <path d="M296 3314 c-68 -21 -154 -108 -187 -189 l-24 -60 -3 -1280 c-2 -921 0 -1297 8 -1340 23 -118 69 -191 145 -226 86 -40 193 -16 357 79 l98 57 0 178 0 178 -22 -12 c-12 -7 -47 -28 -78 -48 -73 -46 -145 -81 -170 -81 -11 0 -29 9 -40 20 -20 20 -20 33 -20 1380 0 748 -3 1360 -7 1359 -5 0 -30 -7 -57 -15z" style="fill-rule: evenodd; paint-order: stroke markers; fill: rgb(255, 255, 255);"/>
    <path d="M560 3166 l0 -163 248 -144 c1179 -683 1710 -994 1729 -1011 65 -61 48 -117 -55 -176 -37 -22 -354 -207 -705 -411 -351 -204 -642 -371 -646 -371 -18 0 -21 106 -21 813 l0 737 -140 0 -140 0 0 -1185 0 -1185 140 0 140 0 0 233 0 232 835 484 c738 427 841 490 885 538 65 71 93 146 88 233 -9 155 -82 225 -459 445 -151 87 -623 364 -1049 614 -690 404 -825 481 -845 481 -3 0 -5 -74 -5 -164z" style="fill-rule: evenodd; paint-order: stroke markers; fill: rgb(255, 255, 255);"/>
  </g>
</svg>